# MagicaVoxel @ Ephtracy

# group
o 

# material
mtllib 210411 man.mtl
usemtl palette

# normals
vn -1 0 0
vn 1 0 0
vn 0 0 1
vn 0 0 -1
vn 0 -1 0
vn 0 1 0

# texcoords
vt 0.0605469 0.5
vt 0.275391 0.5
vt 0.310547 0.5
vt 0.767578 0.5
vt 0.771484 0.5
vt 0.990234 0.5
vt 0.994141 0.5

# verts
v 0 2.5 -0.6
v 0 2.5 -0.7
v 0 3 -0.6
v 0 3 -0.7
v 0.1 2.4 -0.6
v 0.1 2.4 -0.7
v 0.1 2.5 -0.5
v 0.1 2.5 -0.6
v 0.1 2.5 -0.7
v 0.1 2.5 -0.8
v 0.1 3 -0.5
v 0.1 3 -0.6
v 0.1 3 -0.7
v 0.1 3 -0.8
v 0.1 3.1 -0.6
v 0.1 3.1 -0.7
v 0.1 3.3 -0.6
v 0.1 3.3 -0.7
v 0.1 3.9 -0.6
v 0.1 3.9 -0.7
v 0.2 2 -0.6
v 0.2 2 -0.7
v 0.2 2.4 -0.5
v 0.2 2.4 -0.6
v 0.2 2.4 -0.7
v 0.2 2.4 -0.8
v 0.2 2.5 -0.5
v 0.2 2.5 -0.6
v 0.2 2.5 -0.7
v 0.2 2.5 -0.8
v 0.2 3.2 -0.6
v 0.2 3.2 -0.7
v 0.2 3.3 -0.5
v 0.2 3.3 -0.6
v 0.2 3.3 -0.7
v 0.2 3.3 -0.8
v 0.2 3.7 -0.5
v 0.2 3.7 -0.6
v 0.2 3.7 -0.7
v 0.2 3.7 -0.8
v 0.2 3.9 -0.5
v 0.2 3.9 -0.6
v 0.2 3.9 -0.7
v 0.2 3.9 -0.8
v 0.2 4 -0.6
v 0.2 4 -0.7
v 0.3 2.1 -0.5
v 0.3 2.1 -0.6
v 0.3 2.1 -0.7
v 0.3 2.1 -0.8
v 0.3 2.3 -0.5
v 0.3 2.3 -0.6
v 0.3 2.3 -0.7
v 0.3 2.3 -0.8
v 0.3 2.4 -0.5
v 0.3 2.4 -0.6
v 0.3 2.4 -0.7
v 0.3 2.4 -0.8
v 0.3 3 -0.5
v 0.3 3 -0.6
v 0.3 3 -0.7
v 0.3 3 -0.8
v 0.3 3.1 -0.5
v 0.3 3.1 -0.6
v 0.3 3.1 -0.7
v 0.3 3.1 -0.8
v 0.3 3.2 -0.5
v 0.3 3.2 -0.6
v 0.3 3.2 -0.7
v 0.3 3.2 -0.8
v 0.3 3.3 -0.5
v 0.3 3.3 -0.6
v 0.3 3.3 -0.7
v 0.3 3.3 -0.8
v 0.3 3.9 -0.5
v 0.3 3.9 -0.6
v 0.3 3.9 -0.7
v 0.3 3.9 -0.8
v 0.3 4 -0.5
v 0.3 4 -0.6
v 0.3 4 -0.7
v 0.3 4 -0.8
v 0.3 4.1 -0.6
v 0.3 4.1 -0.7
v 0.4 3.1 -0.5
v 0.4 3.1 -0.6
v 0.4 3.1 -0.7
v 0.4 3.1 -0.8
v 0.4 3.2 -0.5
v 0.4 3.2 -0.6
v 0.4 3.2 -0.7
v 0.4 3.2 -0.8
v 0.7 2 -0.6
v 0.7 2 -0.7
v 0.7 2.1 -0.5
v 0.7 2.1 -0.6
v 0.7 2.1 -0.7
v 0.7 2.1 -0.8
v 0.7 2.2 -0.5
v 0.7 2.2 -0.6
v 0.7 2.2 -0.7
v 0.7 2.2 -0.8
v 0.6 2 -0.6
v 0.6 2 -0.7
v 0.6 2.1 -0.5
v 0.6 2.1 -0.6
v 0.6 2.1 -0.7
v 0.6 2.1 -0.8
v 0.6 2.2 -0.5
v 0.6 2.2 -0.6
v 0.6 2.2 -0.7
v 0.6 2.2 -0.8
v 0.9 3.1 -0.5
v 0.9 3.1 -0.6
v 0.9 3.1 -0.7
v 0.9 3.1 -0.8
v 0.9 3.2 -0.5
v 0.9 3.2 -0.6
v 0.9 3.2 -0.7
v 0.9 3.2 -0.8
v 1 2.1 -0.5
v 1 2.1 -0.6
v 1 2.1 -0.7
v 1 2.1 -0.8
v 1 2.3 -0.5
v 1 2.3 -0.6
v 1 2.3 -0.7
v 1 2.3 -0.8
v 1 2.4 -0.5
v 1 2.4 -0.6
v 1 2.4 -0.7
v 1 2.4 -0.8
v 1 3 -0.5
v 1 3 -0.6
v 1 3 -0.7
v 1 3 -0.8
v 1 3.1 -0.5
v 1 3.1 -0.6
v 1 3.1 -0.7
v 1 3.1 -0.8
v 1 3.2 -0.5
v 1 3.2 -0.6
v 1 3.2 -0.7
v 1 3.2 -0.8
v 1 3.3 -0.5
v 1 3.3 -0.6
v 1 3.3 -0.7
v 1 3.3 -0.8
v 1 3.9 -0.5
v 1 3.9 -0.6
v 1 3.9 -0.7
v 1 3.9 -0.8
v 1 4 -0.5
v 1 4 -0.6
v 1 4 -0.7
v 1 4 -0.8
v 1 4.1 -0.6
v 1 4.1 -0.7
v 1.1 2 -0.6
v 1.1 2 -0.7
v 1.1 2.4 -0.5
v 1.1 2.4 -0.6
v 1.1 2.4 -0.7
v 1.1 2.4 -0.8
v 1.1 2.5 -0.5
v 1.1 2.5 -0.6
v 1.1 2.5 -0.7
v 1.1 2.5 -0.8
v 1.1 3.2 -0.6
v 1.1 3.2 -0.7
v 1.1 3.3 -0.5
v 1.1 3.3 -0.6
v 1.1 3.3 -0.7
v 1.1 3.3 -0.8
v 1.1 3.7 -0.5
v 1.1 3.7 -0.6
v 1.1 3.7 -0.7
v 1.1 3.7 -0.8
v 1.1 3.9 -0.5
v 1.1 3.9 -0.6
v 1.1 3.9 -0.7
v 1.1 3.9 -0.8
v 1.1 4 -0.6
v 1.1 4 -0.7
v 1.2 2.4 -0.6
v 1.2 2.4 -0.7
v 1.2 2.5 -0.5
v 1.2 2.5 -0.6
v 1.2 2.5 -0.7
v 1.2 2.5 -0.8
v 1.2 3 -0.5
v 1.2 3 -0.6
v 1.2 3 -0.7
v 1.2 3 -0.8
v 1.2 3.1 -0.6
v 1.2 3.1 -0.7
v 1.2 3.3 -0.6
v 1.2 3.3 -0.7
v 1.2 3.9 -0.6
v 1.2 3.9 -0.7
v 1.3 2.5 -0.6
v 1.3 2.5 -0.7
v 1.3 3 -0.6
v 1.3 3 -0.7
v 0.1 2.5 -0.5
v 0.1 3 -0.5
v 0.2 2.4 -0.5
v 0.2 2.5 -0.5
v 0.2 3 -0.5
v 0.2 3.3 -0.5
v 0.2 3.7 -0.5
v 0.2 3.9 -0.5
v 0.3 2.1 -0.5
v 0.3 2.3 -0.5
v 0.3 2.4 -0.5
v 0.3 3 -0.5
v 0.3 3.1 -0.5
v 0.3 3.2 -0.5
v 0.3 3.3 -0.5
v 0.3 3.7 -0.5
v 0.3 3.8 -0.5
v 0.3 3.9 -0.5
v 0.3 4 -0.5
v 0.4 3.1 -0.5
v 0.4 3.2 -0.5
v 0.4 3.5 -0.5
v 0.4 3.7 -0.5
v 0.5 3.3 -0.5
v 0.5 3.4 -0.5
v 0.5 3.8 -0.5
v 0.5 3.9 -0.5
v 0.6 2.1 -0.5
v 0.6 2.2 -0.5
v 0.6 3.5 -0.5
v 0.6 3.7 -0.5
v 0.7 2.1 -0.5
v 0.7 2.2 -0.5
v 0.7 3.5 -0.5
v 0.7 3.7 -0.5
v 0.8 3.3 -0.5
v 0.8 3.4 -0.5
v 0.8 3.8 -0.5
v 0.8 3.9 -0.5
v 0.9 3.1 -0.5
v 0.9 3.2 -0.5
v 0.9 3.5 -0.5
v 0.9 3.7 -0.5
v 1 2.1 -0.5
v 1 2.3 -0.5
v 1 2.4 -0.5
v 1 3 -0.5
v 1 3.1 -0.5
v 1 3.2 -0.5
v 1 3.3 -0.5
v 1 3.7 -0.5
v 1 3.8 -0.5
v 1 3.9 -0.5
v 1 4 -0.5
v 1.1 2.4 -0.5
v 1.1 2.5 -0.5
v 1.1 3 -0.5
v 1.1 3.3 -0.5
v 1.1 3.7 -0.5
v 1.1 3.9 -0.5
v 1.2 2.5 -0.5
v 1.2 3 -0.5
v 0 2.5 -0.6
v 0 3 -0.6
v 0.1 2.4 -0.6
v 0.1 2.5 -0.6
v 0.1 3 -0.6
v 0.1 3.1 -0.6
v 0.1 3.3 -0.6
v 0.1 3.9 -0.6
v 0.2 2 -0.6
v 0.2 2.4 -0.6
v 0.2 2.5 -0.6
v 0.2 3 -0.6
v 0.2 3.2 -0.6
v 0.2 3.3 -0.6
v 0.2 3.7 -0.6
v 0.2 3.9 -0.6
v 0.2 4 -0.6
v 0.3 2.1 -0.6
v 0.3 2.3 -0.6
v 0.3 2.4 -0.6
v 0.3 3 -0.6
v 0.3 3.1 -0.6
v 0.3 3.2 -0.6
v 0.3 3.3 -0.6
v 0.3 3.9 -0.6
v 0.3 4 -0.6
v 0.3 4.1 -0.6
v 0.4 3.1 -0.6
v 0.4 3.2 -0.6
v 0.6 2 -0.6
v 0.6 2.1 -0.6
v 0.6 2.2 -0.6
v 0.7 2 -0.6
v 0.7 2.1 -0.6
v 0.7 2.2 -0.6
v 0.9 3.1 -0.6
v 0.9 3.2 -0.6
v 1 2.1 -0.6
v 1 2.3 -0.6
v 1 2.4 -0.6
v 1 3 -0.6
v 1 3.1 -0.6
v 1 3.2 -0.6
v 1 3.3 -0.6
v 1 3.9 -0.6
v 1 4 -0.6
v 1 4.1 -0.6
v 1.1 2 -0.6
v 1.1 2.4 -0.6
v 1.1 2.5 -0.6
v 1.1 3 -0.6
v 1.1 3.2 -0.6
v 1.1 3.3 -0.6
v 1.1 3.7 -0.6
v 1.1 3.9 -0.6
v 1.1 4 -0.6
v 1.2 2.4 -0.6
v 1.2 2.5 -0.6
v 1.2 3 -0.6
v 1.2 3.1 -0.6
v 1.2 3.3 -0.6
v 1.2 3.9 -0.6
v 1.3 2.5 -0.6
v 1.3 3 -0.6
v 0 2.5 -0.7
v 0 3 -0.7
v 0.1 2.4 -0.7
v 0.1 2.5 -0.7
v 0.1 3 -0.7
v 0.1 3.1 -0.7
v 0.1 3.3 -0.7
v 0.1 3.9 -0.7
v 0.2 2 -0.7
v 0.2 2.4 -0.7
v 0.2 2.5 -0.7
v 0.2 3 -0.7
v 0.2 3.2 -0.7
v 0.2 3.3 -0.7
v 0.2 3.7 -0.7
v 0.2 3.9 -0.7
v 0.2 4 -0.7
v 0.3 2.1 -0.7
v 0.3 2.3 -0.7
v 0.3 2.4 -0.7
v 0.3 3 -0.7
v 0.3 3.1 -0.7
v 0.3 3.2 -0.7
v 0.3 3.3 -0.7
v 0.3 3.9 -0.7
v 0.3 4 -0.7
v 0.3 4.1 -0.7
v 0.4 3.1 -0.7
v 0.4 3.2 -0.7
v 0.6 2 -0.7
v 0.6 2.1 -0.7
v 0.6 2.2 -0.7
v 0.7 2 -0.7
v 0.7 2.1 -0.7
v 0.7 2.2 -0.7
v 0.9 3.1 -0.7
v 0.9 3.2 -0.7
v 1 2.1 -0.7
v 1 2.3 -0.7
v 1 2.4 -0.7
v 1 3 -0.7
v 1 3.1 -0.7
v 1 3.2 -0.7
v 1 3.3 -0.7
v 1 3.9 -0.7
v 1 4 -0.7
v 1 4.1 -0.7
v 1.1 2 -0.7
v 1.1 2.4 -0.7
v 1.1 2.5 -0.7
v 1.1 3 -0.7
v 1.1 3.2 -0.7
v 1.1 3.3 -0.7
v 1.1 3.7 -0.7
v 1.1 3.9 -0.7
v 1.1 4 -0.7
v 1.2 2.4 -0.7
v 1.2 2.5 -0.7
v 1.2 3 -0.7
v 1.2 3.1 -0.7
v 1.2 3.3 -0.7
v 1.2 3.9 -0.7
v 1.3 2.5 -0.7
v 1.3 3 -0.7
v 0.1 2.5 -0.8
v 0.1 3 -0.8
v 0.2 2.4 -0.8
v 0.2 2.5 -0.8
v 0.2 3 -0.8
v 0.2 3.3 -0.8
v 0.2 3.7 -0.8
v 0.2 3.9 -0.8
v 0.3 2.1 -0.8
v 0.3 2.3 -0.8
v 0.3 2.4 -0.8
v 0.3 3 -0.8
v 0.3 3.1 -0.8
v 0.3 3.2 -0.8
v 0.3 3.3 -0.8
v 0.3 3.7 -0.8
v 0.3 3.8 -0.8
v 0.3 3.9 -0.8
v 0.3 4 -0.8
v 0.4 3.1 -0.8
v 0.4 3.2 -0.8
v 0.4 3.5 -0.8
v 0.4 3.7 -0.8
v 0.5 3.3 -0.8
v 0.5 3.4 -0.8
v 0.5 3.8 -0.8
v 0.5 3.9 -0.8
v 0.6 2.1 -0.8
v 0.6 2.2 -0.8
v 0.6 3.5 -0.8
v 0.6 3.7 -0.8
v 0.7 2.1 -0.8
v 0.7 2.2 -0.8
v 0.7 3.5 -0.8
v 0.7 3.7 -0.8
v 0.8 3.3 -0.8
v 0.8 3.4 -0.8
v 0.8 3.8 -0.8
v 0.8 3.9 -0.8
v 0.9 3.1 -0.8
v 0.9 3.2 -0.8
v 0.9 3.5 -0.8
v 0.9 3.7 -0.8
v 1 2.1 -0.8
v 1 2.3 -0.8
v 1 2.4 -0.8
v 1 3 -0.8
v 1 3.1 -0.8
v 1 3.2 -0.8
v 1 3.3 -0.8
v 1 3.7 -0.8
v 1 3.8 -0.8
v 1 3.9 -0.8
v 1 4 -0.8
v 1.1 2.4 -0.8
v 1.1 2.5 -0.8
v 1.1 3 -0.8
v 1.1 3.3 -0.8
v 1.1 3.7 -0.8
v 1.1 3.9 -0.8
v 1.2 2.5 -0.8
v 1.2 3 -0.8
v 0.2 2 -0.6
v 0.6 2 -0.6
v 0.7 2 -0.6
v 1.1 2 -0.6
v 0.2 2 -0.7
v 0.6 2 -0.7
v 0.7 2 -0.7
v 1.1 2 -0.7
v 0.3 2.1 -0.5
v 0.6 2.1 -0.5
v 0.7 2.1 -0.5
v 1 2.1 -0.5
v 0.3 2.1 -0.6
v 0.6 2.1 -0.6
v 0.7 2.1 -0.6
v 1 2.1 -0.6
v 0.3 2.1 -0.7
v 0.6 2.1 -0.7
v 0.7 2.1 -0.7
v 1 2.1 -0.7
v 0.3 2.1 -0.8
v 0.6 2.1 -0.8
v 0.7 2.1 -0.8
v 1 2.1 -0.8
v 0.6 2.2 -0.5
v 0.7 2.2 -0.5
v 0.6 2.2 -0.6
v 0.7 2.2 -0.6
v 0.6 2.2 -0.7
v 0.7 2.2 -0.7
v 0.6 2.2 -0.8
v 0.7 2.2 -0.8
v 0.2 2.4 -0.5
v 0.3 2.4 -0.5
v 1 2.4 -0.5
v 1.1 2.4 -0.5
v 0.1 2.4 -0.6
v 0.2 2.4 -0.6
v 0.3 2.4 -0.6
v 1 2.4 -0.6
v 1.1 2.4 -0.6
v 1.2 2.4 -0.6
v 0.1 2.4 -0.7
v 0.2 2.4 -0.7
v 0.3 2.4 -0.7
v 1 2.4 -0.7
v 1.1 2.4 -0.7
v 1.2 2.4 -0.7
v 0.2 2.4 -0.8
v 0.3 2.4 -0.8
v 1 2.4 -0.8
v 1.1 2.4 -0.8
v 0.1 2.5 -0.5
v 0.2 2.5 -0.5
v 1.1 2.5 -0.5
v 1.2 2.5 -0.5
v 0 2.5 -0.6
v 0.1 2.5 -0.6
v 0.2 2.5 -0.6
v 1.1 2.5 -0.6
v 1.2 2.5 -0.6
v 1.3 2.5 -0.6
v 0 2.5 -0.7
v 0.1 2.5 -0.7
v 0.2 2.5 -0.7
v 1.1 2.5 -0.7
v 1.2 2.5 -0.7
v 1.3 2.5 -0.7
v 0.1 2.5 -0.8
v 0.2 2.5 -0.8
v 1.1 2.5 -0.8
v 1.2 2.5 -0.8
v 0.3 3.2 -0.5
v 0.4 3.2 -0.5
v 0.9 3.2 -0.5
v 1 3.2 -0.5
v 0.2 3.2 -0.6
v 0.3 3.2 -0.6
v 0.4 3.2 -0.6
v 0.9 3.2 -0.6
v 1 3.2 -0.6
v 1.1 3.2 -0.6
v 0.2 3.2 -0.7
v 0.3 3.2 -0.7
v 0.4 3.2 -0.7
v 0.9 3.2 -0.7
v 1 3.2 -0.7
v 1.1 3.2 -0.7
v 0.3 3.2 -0.8
v 0.4 3.2 -0.8
v 0.9 3.2 -0.8
v 1 3.2 -0.8
v 0.2 3.3 -0.5
v 0.3 3.3 -0.5
v 1 3.3 -0.5
v 1.1 3.3 -0.5
v 0.1 3.3 -0.6
v 0.2 3.3 -0.6
v 0.3 3.3 -0.6
v 1 3.3 -0.6
v 1.1 3.3 -0.6
v 1.2 3.3 -0.6
v 0.1 3.3 -0.7
v 0.2 3.3 -0.7
v 0.3 3.3 -0.7
v 1 3.3 -0.7
v 1.1 3.3 -0.7
v 1.2 3.3 -0.7
v 0.2 3.3 -0.8
v 0.3 3.3 -0.8
v 1 3.3 -0.8
v 1.1 3.3 -0.8
v 0.1 3 -0.5
v 0.2 3 -0.5
v 0.3 3 -0.5
v 1 3 -0.5
v 1.1 3 -0.5
v 1.2 3 -0.5
v 0 3 -0.6
v 0.1 3 -0.6
v 0.2 3 -0.6
v 0.3 3 -0.6
v 1 3 -0.6
v 1.1 3 -0.6
v 1.2 3 -0.6
v 1.3 3 -0.6
v 0 3 -0.7
v 0.1 3 -0.7
v 0.2 3 -0.7
v 0.3 3 -0.7
v 1 3 -0.7
v 1.1 3 -0.7
v 1.2 3 -0.7
v 1.3 3 -0.7
v 0.1 3 -0.8
v 0.2 3 -0.8
v 0.3 3 -0.8
v 1 3 -0.8
v 1.1 3 -0.8
v 1.2 3 -0.8
v 0.3 3.1 -0.5
v 0.4 3.1 -0.5
v 0.9 3.1 -0.5
v 1 3.1 -0.5
v 0.1 3.1 -0.6
v 0.3 3.1 -0.6
v 0.4 3.1 -0.6
v 0.9 3.1 -0.6
v 1 3.1 -0.6
v 1.2 3.1 -0.6
v 0.1 3.1 -0.7
v 0.3 3.1 -0.7
v 0.4 3.1 -0.7
v 0.9 3.1 -0.7
v 1 3.1 -0.7
v 1.2 3.1 -0.7
v 0.3 3.1 -0.8
v 0.4 3.1 -0.8
v 0.9 3.1 -0.8
v 1 3.1 -0.8
v 0.2 3.9 -0.5
v 0.3 3.9 -0.5
v 1 3.9 -0.5
v 1.1 3.9 -0.5
v 0.1 3.9 -0.6
v 0.2 3.9 -0.6
v 0.3 3.9 -0.6
v 1 3.9 -0.6
v 1.1 3.9 -0.6
v 1.2 3.9 -0.6
v 0.1 3.9 -0.7
v 0.2 3.9 -0.7
v 0.3 3.9 -0.7
v 1 3.9 -0.7
v 1.1 3.9 -0.7
v 1.2 3.9 -0.7
v 0.2 3.9 -0.8
v 0.3 3.9 -0.8
v 1 3.9 -0.8
v 1.1 3.9 -0.8
v 0.3 4 -0.5
v 1 4 -0.5
v 0.2 4 -0.6
v 0.3 4 -0.6
v 1 4 -0.6
v 1.1 4 -0.6
v 0.2 4 -0.7
v 0.3 4 -0.7
v 1 4 -0.7
v 1.1 4 -0.7
v 0.3 4 -0.8
v 1 4 -0.8
v 0.3 4.1 -0.6
v 1 4.1 -0.6
v 0.3 4.1 -0.7
v 1 4.1 -0.7

# faces
f 3/7/1 2/7/1 1/7/1
f 4/7/1 2/7/1 3/7/1
f 8/7/1 6/7/1 5/7/1
f 9/7/1 6/7/1 8/7/1
f 11/2/1 8/2/1 7/2/1
f 12/2/1 8/2/1 11/2/1
f 13/2/1 10/2/1 9/2/1
f 14/2/1 10/2/1 13/2/1
f 15/7/1 13/7/1 12/7/1
f 16/7/1 13/7/1 15/7/1
f 19/7/1 18/7/1 17/7/1
f 20/7/1 18/7/1 19/7/1
f 24/7/1 22/7/1 21/7/1
f 25/7/1 22/7/1 24/7/1
f 27/4/1 24/4/1 23/4/1
f 28/4/1 24/4/1 27/4/1
f 29/4/1 26/4/1 25/4/1
f 30/4/1 26/4/1 29/4/1
f 34/7/1 32/7/1 31/7/1
f 35/7/1 32/7/1 34/7/1
f 37/2/1 34/2/1 33/2/1
f 38/2/1 34/2/1 37/2/1
f 39/2/1 36/2/1 35/2/1
f 40/2/1 36/2/1 39/2/1
f 41/3/1 38/3/1 37/3/1
f 42/3/1 38/3/1 41/3/1
f 43/3/1 40/3/1 39/3/1
f 44/3/1 40/3/1 43/3/1
f 45/7/1 43/7/1 42/7/1
f 46/7/1 43/7/1 45/7/1
f 51/5/1 48/5/1 47/5/1
f 52/5/1 48/5/1 51/5/1
f 53/5/1 50/5/1 49/5/1
f 54/5/1 50/5/1 53/5/1
f 55/4/1 52/4/1 51/4/1
f 56/4/1 52/4/1 55/4/1
f 57/4/1 54/4/1 53/4/1
f 58/4/1 54/4/1 57/4/1
f 63/5/1 60/5/1 59/5/1
f 64/5/1 60/5/1 63/5/1
f 65/5/1 62/5/1 61/5/1
f 66/5/1 62/5/1 65/5/1
f 68/7/1 65/7/1 64/7/1
f 69/7/1 65/7/1 68/7/1
f 71/2/1 68/2/1 67/2/1
f 72/2/1 68/2/1 71/2/1
f 73/2/1 70/2/1 69/2/1
f 74/2/1 70/2/1 73/2/1
f 79/3/1 76/3/1 75/3/1
f 80/3/1 76/3/1 79/3/1
f 81/3/1 78/3/1 77/3/1
f 82/3/1 78/3/1 81/3/1
f 83/7/1 81/7/1 80/7/1
f 84/7/1 81/7/1 83/7/1
f 89/4/1 86/4/1 85/4/1
f 90/4/1 86/4/1 89/4/1
f 91/4/1 88/4/1 87/4/1
f 92/4/1 88/4/1 91/4/1
f 96/7/1 94/7/1 93/7/1
f 97/7/1 94/7/1 96/7/1
f 99/5/1 96/5/1 95/5/1
f 100/5/1 96/5/1 99/5/1
f 101/5/1 98/5/1 97/5/1
f 102/5/1 98/5/1 101/5/1
f 103/7/2 104/7/2 106/7/2
f 106/7/2 104/7/2 107/7/2
f 105/5/2 106/5/2 109/5/2
f 109/5/2 106/5/2 110/5/2
f 107/5/2 108/5/2 111/5/2
f 111/5/2 108/5/2 112/5/2
f 113/4/2 114/4/2 117/4/2
f 117/4/2 114/4/2 118/4/2
f 115/4/2 116/4/2 119/4/2
f 119/4/2 116/4/2 120/4/2
f 121/5/2 122/5/2 125/5/2
f 125/5/2 122/5/2 126/5/2
f 123/5/2 124/5/2 127/5/2
f 127/5/2 124/5/2 128/5/2
f 125/4/2 126/4/2 129/4/2
f 129/4/2 126/4/2 130/4/2
f 127/4/2 128/4/2 131/4/2
f 131/4/2 128/4/2 132/4/2
f 133/5/2 134/5/2 137/5/2
f 137/5/2 134/5/2 138/5/2
f 135/5/2 136/5/2 139/5/2
f 139/5/2 136/5/2 140/5/2
f 138/7/2 139/7/2 142/7/2
f 142/7/2 139/7/2 143/7/2
f 141/2/2 142/2/2 145/2/2
f 145/2/2 142/2/2 146/2/2
f 143/2/2 144/2/2 147/2/2
f 147/2/2 144/2/2 148/2/2
f 149/3/2 150/3/2 153/3/2
f 153/3/2 150/3/2 154/3/2
f 151/3/2 152/3/2 155/3/2
f 155/3/2 152/3/2 156/3/2
f 154/7/2 155/7/2 157/7/2
f 157/7/2 155/7/2 158/7/2
f 159/7/2 160/7/2 162/7/2
f 162/7/2 160/7/2 163/7/2
f 161/4/2 162/4/2 165/4/2
f 165/4/2 162/4/2 166/4/2
f 163/4/2 164/4/2 167/4/2
f 167/4/2 164/4/2 168/4/2
f 169/7/2 170/7/2 172/7/2
f 172/7/2 170/7/2 173/7/2
f 171/2/2 172/2/2 175/2/2
f 175/2/2 172/2/2 176/2/2
f 173/2/2 174/2/2 177/2/2
f 177/2/2 174/2/2 178/2/2
f 175/3/2 176/3/2 179/3/2
f 179/3/2 176/3/2 180/3/2
f 177/3/2 178/3/2 181/3/2
f 181/3/2 178/3/2 182/3/2
f 180/7/2 181/7/2 183/7/2
f 183/7/2 181/7/2 184/7/2
f 185/7/2 186/7/2 188/7/2
f 188/7/2 186/7/2 189/7/2
f 187/2/2 188/2/2 191/2/2
f 191/2/2 188/2/2 192/2/2
f 189/2/2 190/2/2 193/2/2
f 193/2/2 190/2/2 194/2/2
f 192/7/2 193/7/2 195/7/2
f 195/7/2 193/7/2 196/7/2
f 197/7/2 198/7/2 199/7/2
f 199/7/2 198/7/2 200/7/2
f 201/7/2 202/7/2 203/7/2
f 203/7/2 202/7/2 204/7/2
f 208/2/3 206/2/3 205/2/3
f 209/2/3 206/2/3 208/2/3
f 215/4/3 208/4/3 207/4/3
f 215/4/3 209/4/3 208/4/3
f 216/4/3 209/4/3 215/4/3
f 219/2/3 211/2/3 210/2/3
f 220/3/3 212/3/3 211/3/3
f 220/2/3 211/2/3 219/2/3
f 221/3/3 212/3/3 220/3/3
f 222/3/3 212/3/3 221/3/3
f 224/5/3 217/5/3 216/5/3
f 224/5/3 216/5/3 215/5/3
f 225/2/3 219/2/3 218/2/3
f 225/2/3 220/2/3 219/2/3
f 225/2/3 221/2/3 220/2/3
f 226/2/3 221/2/3 225/2/3
f 227/2/3 221/2/3 226/2/3
f 228/2/3 226/2/3 225/2/3
f 229/2/3 226/2/3 228/2/3
f 230/3/3 223/3/3 222/3/3
f 230/3/3 222/3/3 221/3/3
f 230/2/3 221/2/3 227/2/3
f 231/3/3 223/3/3 230/3/3
f 232/5/3 214/5/3 213/5/3
f 233/5/3 214/5/3 232/5/3
f 234/2/3 226/2/3 229/2/3
f 234/6/3 227/6/3 226/6/3
f 235/2/3 230/2/3 227/2/3
f 235/6/3 227/6/3 234/6/3
f 235/2/3 231/2/3 230/2/3
f 237/5/3 214/5/3 233/5/3
f 238/2/3 235/2/3 234/2/3
f 238/2/3 234/2/3 229/2/3
f 239/2/3 231/2/3 235/2/3
f 239/2/3 235/2/3 238/2/3
f 240/1/3 229/1/3 228/1/3
f 240/2/3 228/2/3 225/2/3
f 241/2/3 238/2/3 229/2/3
f 241/1/3 229/1/3 240/1/3
f 242/2/3 231/2/3 239/2/3
f 243/3/3 223/3/3 231/3/3
f 243/2/3 231/2/3 242/2/3
f 244/5/3 224/5/3 215/5/3
f 244/4/3 225/4/3 224/4/3
f 245/2/3 240/2/3 225/2/3
f 245/4/3 225/4/3 244/4/3
f 245/2/3 241/2/3 240/2/3
f 246/2/3 238/2/3 241/2/3
f 246/2/3 241/2/3 245/2/3
f 246/6/3 239/6/3 238/6/3
f 247/2/3 242/2/3 239/2/3
f 247/6/3 239/6/3 246/6/3
f 248/5/3 237/5/3 236/5/3
f 249/4/3 215/4/3 214/4/3
f 249/5/3 237/5/3 248/5/3
f 249/5/3 214/5/3 237/5/3
f 250/5/3 244/5/3 215/5/3
f 250/4/3 215/4/3 249/4/3
f 251/5/3 244/5/3 250/5/3
f 252/5/3 244/5/3 251/5/3
f 253/2/3 246/2/3 245/2/3
f 253/2/3 247/2/3 246/2/3
f 254/2/3 247/2/3 253/2/3
f 255/2/3 242/2/3 247/2/3
f 255/2/3 247/2/3 254/2/3
f 256/3/3 243/3/3 242/3/3
f 256/2/3 242/2/3 255/2/3
f 257/3/3 223/3/3 243/3/3
f 257/3/3 243/3/3 256/3/3
f 258/3/3 223/3/3 257/3/3
f 259/4/3 251/4/3 250/4/3
f 260/4/3 251/4/3 259/4/3
f 261/4/3 251/4/3 260/4/3
f 262/2/3 255/2/3 254/2/3
f 263/3/3 256/3/3 255/3/3
f 263/2/3 255/2/3 262/2/3
f 263/3/3 257/3/3 256/3/3
f 264/3/3 257/3/3 263/3/3
f 265/2/3 261/2/3 260/2/3
f 266/2/3 261/2/3 265/2/3
f 270/7/3 268/7/3 267/7/3
f 271/7/3 268/7/3 270/7/3
f 276/7/3 270/7/3 269/7/3
f 277/7/3 270/7/3 276/7/3
f 278/7/3 272/7/3 271/7/3
f 280/7/3 274/7/3 273/7/3
f 281/7/3 274/7/3 280/7/3
f 282/7/3 274/7/3 281/7/3
f 284/7/3 276/7/3 275/7/3
f 285/7/3 276/7/3 284/7/3
f 286/7/3 276/7/3 285/7/3
f 287/7/3 272/7/3 278/7/3
f 288/7/3 272/7/3 287/7/3
f 289/7/3 280/7/3 279/7/3
f 290/7/3 280/7/3 289/7/3
f 291/7/3 283/7/3 282/7/3
f 292/7/3 283/7/3 291/7/3
f 294/7/3 289/7/3 288/7/3
f 295/7/3 289/7/3 294/7/3
f 296/7/3 284/7/3 275/7/3
f 297/7/3 284/7/3 296/7/3
f 300/7/3 298/7/3 297/7/3
f 301/7/3 298/7/3 300/7/3
f 304/7/3 300/7/3 299/7/3
f 308/7/3 303/7/3 302/7/3
f 309/7/3 303/7/3 308/7/3
f 312/7/3 293/7/3 292/7/3
f 313/7/3 293/7/3 312/7/3
f 314/7/3 306/7/3 305/7/3
f 314/7/3 304/7/3 299/7/3
f 314/7/3 305/7/3 304/7/3
f 315/7/3 306/7/3 314/7/3
f 317/7/3 308/7/3 307/7/3
f 318/7/3 310/7/3 309/7/3
f 319/7/3 310/7/3 318/7/3
f 321/7/3 312/7/3 311/7/3
f 322/7/3 312/7/3 321/7/3
f 323/7/3 316/7/3 315/7/3
f 324/7/3 316/7/3 323/7/3
f 325/7/3 308/7/3 317/7/3
f 326/7/3 308/7/3 325/7/3
f 327/7/3 320/7/3 319/7/3
f 327/7/3 321/7/3 320/7/3
f 328/7/3 321/7/3 327/7/3
f 329/7/3 325/7/3 324/7/3
f 330/7/3 325/7/3 329/7/3
f 331/7/4 332/7/4 334/7/4
f 334/7/4 332/7/4 335/7/4
f 333/7/4 334/7/4 340/7/4
f 340/7/4 334/7/4 341/7/4
f 335/7/4 336/7/4 342/7/4
f 337/7/4 338/7/4 344/7/4
f 344/7/4 338/7/4 345/7/4
f 345/7/4 338/7/4 346/7/4
f 339/7/4 340/7/4 348/7/4
f 348/7/4 340/7/4 349/7/4
f 349/7/4 340/7/4 350/7/4
f 342/7/4 336/7/4 351/7/4
f 351/7/4 336/7/4 352/7/4
f 343/7/4 344/7/4 353/7/4
f 353/7/4 344/7/4 354/7/4
f 346/7/4 347/7/4 355/7/4
f 355/7/4 347/7/4 356/7/4
f 352/7/4 353/7/4 358/7/4
f 358/7/4 353/7/4 359/7/4
f 339/7/4 348/7/4 360/7/4
f 360/7/4 348/7/4 361/7/4
f 361/7/4 362/7/4 364/7/4
f 364/7/4 362/7/4 365/7/4
f 363/7/4 364/7/4 368/7/4
f 366/7/4 367/7/4 372/7/4
f 372/7/4 367/7/4 373/7/4
f 356/7/4 357/7/4 376/7/4
f 376/7/4 357/7/4 377/7/4
f 369/7/4 370/7/4 378/7/4
f 363/7/4 368/7/4 378/7/4
f 368/7/4 369/7/4 378/7/4
f 378/7/4 370/7/4 379/7/4
f 371/7/4 372/7/4 381/7/4
f 373/7/4 374/7/4 382/7/4
f 382/7/4 374/7/4 383/7/4
f 375/7/4 376/7/4 385/7/4
f 385/7/4 376/7/4 386/7/4
f 379/7/4 380/7/4 387/7/4
f 387/7/4 380/7/4 388/7/4
f 381/7/4 372/7/4 389/7/4
f 389/7/4 372/7/4 390/7/4
f 383/7/4 384/7/4 391/7/4
f 384/7/4 385/7/4 391/7/4
f 391/7/4 385/7/4 392/7/4
f 388/7/4 389/7/4 393/7/4
f 393/7/4 389/7/4 394/7/4
f 395/2/4 396/2/4 398/2/4
f 398/2/4 396/2/4 399/2/4
f 397/4/4 398/4/4 405/4/4
f 398/4/4 399/4/4 405/4/4
f 405/4/4 399/4/4 406/4/4
f 400/2/4 401/2/4 409/2/4
f 401/3/4 402/3/4 410/3/4
f 409/2/4 401/2/4 410/2/4
f 410/3/4 402/3/4 411/3/4
f 411/3/4 402/3/4 412/3/4
f 406/5/4 407/5/4 414/5/4
f 405/5/4 406/5/4 414/5/4
f 408/2/4 409/2/4 415/2/4
f 409/2/4 410/2/4 415/2/4
f 410/2/4 411/2/4 415/2/4
f 415/2/4 411/2/4 416/2/4
f 416/2/4 411/2/4 417/2/4
f 415/2/4 416/2/4 418/2/4
f 418/2/4 416/2/4 419/2/4
f 412/3/4 413/3/4 420/3/4
f 411/3/4 412/3/4 420/3/4
f 417/2/4 411/2/4 420/2/4
f 420/3/4 413/3/4 421/3/4
f 403/5/4 404/5/4 422/5/4
f 422/5/4 404/5/4 423/5/4
f 419/2/4 416/2/4 424/2/4
f 416/6/4 417/6/4 424/6/4
f 417/2/4 420/2/4 425/2/4
f 424/6/4 417/6/4 425/6/4
f 420/2/4 421/2/4 425/2/4
f 423/5/4 404/5/4 427/5/4
f 424/2/4 425/2/4 428/2/4
f 419/2/4 424/2/4 428/2/4
f 425/2/4 421/2/4 429/2/4
f 428/2/4 425/2/4 429/2/4
f 418/1/4 419/1/4 430/1/4
f 415/2/4 418/2/4 430/2/4
f 419/2/4 428/2/4 431/2/4
f 430/1/4 419/1/4 431/1/4
f 429/2/4 421/2/4 432/2/4
f 421/3/4 413/3/4 433/3/4
f 432/2/4 421/2/4 433/2/4
f 405/5/4 414/5/4 434/5/4
f 414/4/4 415/4/4 434/4/4
f 415/2/4 430/2/4 435/2/4
f 434/4/4 415/4/4 435/4/4
f 430/2/4 431/2/4 435/2/4
f 431/2/4 428/2/4 436/2/4
f 435/2/4 431/2/4 436/2/4
f 428/6/4 429/6/4 436/6/4
f 429/2/4 432/2/4 437/2/4
f 436/6/4 429/6/4 437/6/4
f 426/5/4 427/5/4 438/5/4
f 404/4/4 405/4/4 439/4/4
f 438/5/4 427/5/4 439/5/4
f 427/5/4 404/5/4 439/5/4
f 405/5/4 434/5/4 440/5/4
f 439/4/4 405/4/4 440/4/4
f 440/5/4 434/5/4 441/5/4
f 441/5/4 434/5/4 442/5/4
f 435/2/4 436/2/4 443/2/4
f 436/2/4 437/2/4 443/2/4
f 443/2/4 437/2/4 444/2/4
f 437/2/4 432/2/4 445/2/4
f 444/2/4 437/2/4 445/2/4
f 432/3/4 433/3/4 446/3/4
f 445/2/4 432/2/4 446/2/4
f 433/3/4 413/3/4 447/3/4
f 446/3/4 433/3/4 447/3/4
f 447/3/4 413/3/4 448/3/4
f 440/4/4 441/4/4 449/4/4
f 449/4/4 441/4/4 450/4/4
f 450/4/4 441/4/4 451/4/4
f 444/2/4 445/2/4 452/2/4
f 445/3/4 446/3/4 453/3/4
f 452/2/4 445/2/4 453/2/4
f 446/3/4 447/3/4 453/3/4
f 453/3/4 447/3/4 454/3/4
f 450/2/4 451/2/4 455/2/4
f 455/2/4 451/2/4 456/2/4
f 461/7/5 458/7/5 457/7/5
f 462/7/5 458/7/5 461/7/5
f 463/7/5 460/7/5 459/7/5
f 464/7/5 460/7/5 463/7/5
f 469/5/5 466/5/5 465/5/5
f 470/5/5 466/5/5 469/5/5
f 471/5/5 468/5/5 467/5/5
f 472/5/5 468/5/5 471/5/5
f 474/7/5 471/7/5 470/7/5
f 475/7/5 471/7/5 474/7/5
f 477/5/5 474/5/5 473/5/5
f 478/5/5 474/5/5 477/5/5
f 479/5/5 476/5/5 475/5/5
f 480/5/5 476/5/5 479/5/5
f 483/5/5 482/5/5 481/5/5
f 484/5/5 482/5/5 483/5/5
f 487/5/5 486/5/5 485/5/5
f 488/5/5 486/5/5 487/5/5
f 494/4/5 490/4/5 489/4/5
f 495/4/5 490/4/5 494/4/5
f 496/4/5 492/4/5 491/4/5
f 497/4/5 492/4/5 496/4/5
f 499/7/5 494/7/5 493/7/5
f 500/7/5 494/7/5 499/7/5
f 503/7/5 498/7/5 497/7/5
f 504/7/5 498/7/5 503/7/5
f 505/4/5 501/4/5 500/4/5
f 506/4/5 501/4/5 505/4/5
f 507/4/5 503/4/5 502/4/5
f 508/4/5 503/4/5 507/4/5
f 514/2/5 510/2/5 509/2/5
f 515/2/5 510/2/5 514/2/5
f 516/2/5 512/2/5 511/2/5
f 517/2/5 512/2/5 516/2/5
f 519/7/5 514/7/5 513/7/5
f 520/7/5 514/7/5 519/7/5
f 523/7/5 518/7/5 517/7/5
f 524/7/5 518/7/5 523/7/5
f 525/2/5 521/2/5 520/2/5
f 526/2/5 521/2/5 525/2/5
f 527/2/5 523/2/5 522/2/5
f 528/2/5 523/2/5 527/2/5
f 534/2/5 530/2/5 529/2/5
f 535/2/5 530/2/5 534/2/5
f 536/2/5 532/2/5 531/2/5
f 537/2/5 532/2/5 536/2/5
f 539/7/5 534/7/5 533/7/5
f 540/7/5 534/7/5 539/7/5
f 543/7/5 538/7/5 537/7/5
f 544/7/5 538/7/5 543/7/5
f 545/2/5 541/2/5 540/2/5
f 546/2/5 541/2/5 545/2/5
f 547/2/5 543/2/5 542/2/5
f 548/2/5 543/2/5 547/2/5
f 554/2/5 550/2/5 549/2/5
f 555/2/5 550/2/5 554/2/5
f 556/2/5 552/2/5 551/2/5
f 557/2/5 552/2/5 556/2/5
f 559/7/5 554/7/5 553/7/5
f 560/7/5 554/7/5 559/7/5
f 563/7/5 558/7/5 557/7/5
f 564/7/5 558/7/5 563/7/5
f 565/2/5 561/2/5 560/2/5
f 566/2/5 561/2/5 565/2/5
f 567/2/5 563/2/5 562/2/5
f 568/2/5 563/2/5 567/2/5
f 569/2/6 570/2/6 576/2/6
f 570/4/6 571/4/6 577/4/6
f 576/2/6 570/2/6 577/2/6
f 577/4/6 571/4/6 578/4/6
f 572/4/6 573/4/6 579/4/6
f 573/2/6 574/2/6 580/2/6
f 579/4/6 573/4/6 580/4/6
f 580/2/6 574/2/6 581/2/6
f 575/7/6 576/7/6 583/7/6
f 583/7/6 576/7/6 584/7/6
f 581/7/6 582/7/6 589/7/6
f 589/7/6 582/7/6 590/7/6
f 584/2/6 585/2/6 591/2/6
f 585/4/6 586/4/6 592/4/6
f 591/2/6 585/2/6 592/2/6
f 592/4/6 586/4/6 593/4/6
f 587/4/6 588/4/6 594/4/6
f 588/2/6 589/2/6 595/2/6
f 594/4/6 588/4/6 595/4/6
f 595/2/6 589/2/6 596/2/6
f 597/5/6 598/5/6 602/5/6
f 602/5/6 598/5/6 603/5/6
f 599/5/6 600/5/6 604/5/6
f 604/5/6 600/5/6 605/5/6
f 601/7/6 602/7/6 607/7/6
f 607/7/6 602/7/6 608/7/6
f 605/7/6 606/7/6 611/7/6
f 611/7/6 606/7/6 612/7/6
f 608/5/6 609/5/6 613/5/6
f 613/5/6 609/5/6 614/5/6
f 610/5/6 611/5/6 615/5/6
f 615/5/6 611/5/6 616/5/6
f 617/3/6 618/3/6 622/3/6
f 622/3/6 618/3/6 623/3/6
f 619/3/6 620/3/6 624/3/6
f 624/3/6 620/3/6 625/3/6
f 621/7/6 622/7/6 627/7/6
f 627/7/6 622/7/6 628/7/6
f 625/7/6 626/7/6 631/7/6
f 631/7/6 626/7/6 632/7/6
f 628/3/6 629/3/6 633/3/6
f 633/3/6 629/3/6 634/3/6
f 630/3/6 631/3/6 635/3/6
f 635/3/6 631/3/6 636/3/6
f 637/3/6 638/3/6 640/3/6
f 640/3/6 638/3/6 641/3/6
f 639/7/6 640/7/6 643/7/6
f 643/7/6 640/7/6 644/7/6
f 641/7/6 642/7/6 645/7/6
f 645/7/6 642/7/6 646/7/6
f 644/3/6 645/3/6 647/3/6
f 647/3/6 645/3/6 648/3/6
f 649/7/6 650/7/6 651/7/6
f 651/7/6 650/7/6 652/7/6
